# xmcd
#
# Track frame offsets: 
#        150
#        12574
#        24204
#        40956
#        53678
#        68773
#        82262
#        94499
#        104470
#        117115
#        128972
#        140443
#        154111
#        164314
#        176267
#
# Disc length: 2511 seconds
#
# Revision: 2
# Processed by: cddbd v1.5.2PL0 Copyright (c) Steve Scherf et al.
# Submitted via: ExactAudioCopy v1.0b3
#
DISCID=c509cd0f
DTITLE=Johnny Cash - Original Greatest Hit
DYEAR=2005
DGENRE=Country
TTITLE0=I Walk The Line
TTITLE1=Ring Of Fire
TTITLE2=Ghost Riders In The Sky
TTITLE3=Folsom Prison Blues
TTITLE4=A Boy Named Sue (Live)
TTITLE5=Don't Take Your Guns To Town
TTITLE6=Understand Your Man
TTITLE7=Ballad Of A Teenage Queen
TTITLE8=The One On The Right Is On The Left
TTITLE9=So Doggone Lonesome
TTITLE10=Big River
TTITLE11=It Ain't Me Babe
TTITLE12=The Ways Of A Woman In Love
TTITLE13=Home Of The Blues
TTITLE14=You're The Nearest Thing To Heaven
EXTD=YEAR: 0
EXTT0=
EXTT1=
EXTT2=
EXTT3=
EXTT4=
EXTT5=
EXTT6=
EXTT7=
EXTT8=
EXTT9=
EXTT10=
EXTT11=
EXTT12=
EXTT13=
EXTT14=
PLAYORDER=
